<?xml version="1.0" encoding="UTF-8"?>
<svg id="Capa_1" data-name="Capa 1" xmlns="http://www.w3.org/2000/svg" viewBox="0 0 128 128">
  <path d="M21.2,65.9c.7,0,1.4,0,2.2,0,32,0,64,0,96.1,0,2.2,0,3.9,.6,5,2.4-.4,1.4,.5,3-.9,4.2-2.6,2.3-5.2,4.7-7.8,7-5.1,4.5-10.2,8.9-15.3,13.4-2.6,2.3-5.2,4.7-7.8,7-5,4.4-10,8.7-15,13.1-3.9,3.4-7.7,6.9-11.6,10.3-.9,.8-2,1.2-3.3,1.2-12.9,0-25.9,0-38.8,0-6.4,0-12.8,0-19.2,0-2.5-2.2-3-4-1.6-5.8,1-1.2,2.2-1.7,3.8-1.7,16.9,0,33.7,0,50.6,.1,3.3,0,5.6-1.1,7.8-3.2,5.3-4.8,10.8-9.4,16.4-14.1,4.2-3.5,8.2-7.2,12.4-10.8,4.1-3.5,8.2-6.9,12.3-10.4,1.1-.9,2.1-1.9,3.1-2.8,.4-.3,.8-.5,1-1.2H4c-.9-1-1.1-2.6-2.6-3.2-.6-.3-.1-3.9,.5-4.7,1.6-2.1,4-3.1,6.3-4.3,6.9-3.8,13.8-7.5,20.6-11.2,10-5.5,20-10.9,30.1-16.5-4.8-2-9.6-4-14.3-6-4.9-2.1-9.8-4.4-14.8-6.5-7.7-3.3-15.5-6.7-23.2-9.9-.6-.3-1.1-.7-1.8-.9-2.8-.9-3.4-4.6-1-6.5,1.4-1.1,3.2-.8,4.6-.3,8.6,3.5,17.2,7.2,25.7,10.8,8.1,3.4,16.2,6.8,24.3,10.2,2.6,1.1,5.1,2.2,7.6,3.4,2.3,1.1,3.9-.4,5.6-1.2,3.9-2,7.7-4.3,11.6-6.4,9.4-5.2,18.8-10.4,28.2-15.5,2.5-1.4,5.2-2.7,7.7-4,3.7-1.8,5.3-.8,5.3,3.2,0,.4,0,.8,0,1.2-.3,.2-.7,.3-.4,.8,0,0,0,0,0,0-2.7,1.5-5.4,3-8.1,4.5-8.5,4.8-17,9.6-25.5,14.4-6.2,3.5-12.5,6.8-18.8,10.3-9.6,5.4-19.2,10.8-28.9,16.2-6.3,3.5-12.7,6.9-18.9,10.5-1.4,.8-3.3,1.2-4.1,3h1.4Z"/>
  <path d="M122.9,61.2c-2.8,.6-5.1-1-7.4-1.9-6.3-2.5-12.5-5.3-18.7-8-9.2-4-18.4-8-27.6-12,3.1-1.7,6.1-3.6,9.4-5,7.1,3,14.2,6,21.3,9,6.3,2.7,12.6,5.4,18.9,8.1,1.1,.5,2.2,.9,3.3,1.3,.9,.4,2,.7,2.1,2,.7,2,.4,4-.4,5.9,0,0,0,0,0,0-.4,0-.6,.4-.8,.7Z"/>
  <path d="M4.7,124.5c6.4,0,12.8,0,19.2,0,12.9,0,25.9,0,38.8,0,1.3,0,2.4-.4,3.3-1.2,3.9-3.4,7.7-6.9,11.6-10.3,5-4.4,10-8.7,15-13.1,2.6-2.3,5.2-4.7,7.8-7,5.1-4.5,10.2-8.9,15.3-13.4,2.6-2.3,5.2-4.7,7.8-7,1.4-1.2,.5-2.8,.9-4.2,.2,0,.6,.1,.6,.3,.8,2.5-.2,5.2-2.2,6.9-3.2,2.8-6.4,5.6-9.6,8.4-5.1,4.5-10.2,8.9-15.3,13.4-2.6,2.3-5.1,4.6-7.7,6.9-5.6,4.9-11.2,9.8-16.7,14.8-1.8,1.7-3.8,3.1-5.4,5-.9,1-2.1,1.7-3.8,1.7-18.8,0-37.6,0-56.4,0-1.3,0-2.4-.2-3.3-1.1Z" style="fill: #01a1e7;"/>
  <path d="M78.5,34.2c-3.2,1.5-6.3,3.3-9.4,5-6.9,3.8-13.9,7.6-20.8,11.5-9,5.1-18.2,9.9-27,15.2-.5,0-.9,0-1.4,0,.8-1.8,2.7-2.2,4.1-3,6.2-3.6,12.6-7,18.9-10.5,9.6-5.4,19.2-10.8,28.9-16.2,6.2-3.5,12.5-6.8,18.8-10.3,8.5-4.8,17-9.6,25.5-14.4,2.7-1.5,5.4-3,8.1-4.5-.2,2.5-2.4,3-4,4-8.2,4.6-16.5,9.1-24.8,13.7-5.6,3.1-11.2,6.3-16.8,9.5Z" style="fill: #01a1e7;"/>
  <path d="M4,74.6H110.5c-.2,.7-.6,1-1,1.2-6.3,0-12.7,0-19,0-27.5,0-55.1,0-82.6,0-1.4,0-2.9,0-3.9-1.2Z" style="fill: #01a1e7;"/>
  <path d="M123.7,60.5c.9-1.9,1.1-3.9,.4-5.9,1.1,.6,1.7,3.5,.7,4.8-.3,.4-.2,1.4-1.2,1.1Z" style="fill: #01a1e7;"/>
  <path d="M122.9,61.2c.2-.3,.4-.7,.8-.7,.2,.8-.3,.8-.8,.7Z" style="fill: #01a1e7;"/>
  <path d="M124,7.1c-.3-.5,.1-.6,.4-.8,0,.3,.2,.7-.4,.8Z" style="fill: #01a1e7;"/>
</svg>